<svg xmlns="http://www.w3.org/2000/svg"><defs><symbol id="arrow-right" viewBox="0 0 8 16"><path fill="currentColor" fill-rule="evenodd" d="M.582 15.38a1 1 0 0 1-.13-1.408L5.26 8.185.492 2.446A1 1 0 1 1 2.03 1.168l5.83 7.017-5.87 7.065a1 1 0 0 1-1.408.13" clip-rule="evenodd"/></symbol><symbol id="arrow-down" viewBox="0 0 13 6"><path fill="currentColor" fill-rule="evenodd" d="M11.84.316a.876.876 0 0 0-1.232-.114L6.37 3.723 2.168.233a.876.876 0 0 0-1.12 1.346L6.37 6l5.357-4.45A.876.876 0 0 0 11.84.315" clip-rule="evenodd"/></symbol><symbol id="browse" viewBox="0 0 16 16"><path fill="currentColor" fill-rule="evenodd" d="M8 1.5a6.5 6.5 0 1 0 0 13 6.5 6.5 0 0 0 0-13M0 8a8 8 0 1 1 16 0A8 8 0 0 1 0 8m7.467-3.87a.75.75 0 0 1 1.057.004l3.155 3.155a.75.75 0 0 1-1.061 1.061L8.743 6.475v4.86a.75.75 0 0 1-1.5 0V6.458L5.405 8.273A.75.75 0 0 1 4.35 7.206z" clip-rule="evenodd"/></symbol><symbol id="clear" viewBox="0 0 16 16"><path fill="currentColor" fill-rule="evenodd" d="M8 1.6a6.4 6.4 0 1 0 0 12.8A6.4 6.4 0 0 0 8 1.6M0 8a8 8 0 1 1 15.999 0 8 8 0 0 1-16 0m4.42-3.63a.8.8 0 0 1 1.131 0l2.472 2.472 2.471-2.472a.8.8 0 0 1 1.132 1.132L9.153 7.974l2.472 2.472a.8.8 0 0 1-1.132 1.131L8.022 9.106 5.55 11.577a.8.8 0 0 1-1.131-1.131L6.89 7.974 4.42 5.503a.8.8 0 0 1 0-1.132" clip-rule="evenodd"/></symbol><symbol id="download" viewBox="0 0 16 16"><path fill="currentColor" fill-rule="evenodd" d="M7.999 1.5a6.5 6.5 0 1 0 0 13 6.5 6.5 0 0 0 0-13m-8 6.5a8 8 0 1 1 16 0 8 8 0 0 1-16 0m8.033-4.085a.75.75 0 0 1 .75.75V9.54l1.839-1.814a.75.75 0 1 1 1.053 1.067L8.56 11.868a.75.75 0 0 1-1.057-.003L4.347 8.71a.75.75 0 0 1 1.06-1.061l1.875 1.875v-4.86a.75.75 0 0 1 .75-.75" clip-rule="evenodd"/></symbol><symbol id="remove" viewBox="0 0 18 18"><path fill="currentColor" fill-rule="evenodd" d="M0 4a4 4 0 0 1 4-4h10a4 4 0 0 1 4 4v10a4 4 0 0 1-4 4H4a4 4 0 0 1-4-4zm13.862.138a.875.875 0 0 1 0 1.238L10.237 9l3.625 3.624a.875.875 0 1 1-1.238 1.238L9 10.238l-3.624 3.624a.875.875 0 0 1-1.238-1.238L7.763 9 4.138 5.376a.875.875 0 1 1 1.238-1.238L9 7.763l3.624-3.625a.875.875 0 0 1 1.238 0" clip-rule="evenodd"/></symbol><symbol id="processing" viewBox="0 0 56 58"><path fill="#fff" fill-rule="evenodd" d="m42.677 10.434.36 1.095a2.27 2.27 0 0 0 1.257 1.37 2.54 2.54 0 0 0 2.08-.005l.906-.417c.147-.068.253-.027.294.007a10.2 10.2 0 0 1 1.64 1.733c.032.043.068.153-.004.3l-.474.968a2.5 2.5 0 0 0-.072 1.994c.236.61.713 1.153 1.386 1.41l.995.382c.15.058.197.163.203.217.077.793.064 1.6-.043 2.405-.008.054-.058.157-.21.209l-1.076.366a2.26 2.26 0 0 0-1.346 1.279 2.67 2.67 0 0 0 .004 2.117l.41.922c.067.15.027.257-.007.298a10.2 10.2 0 0 1-1.703 1.669c-.043.033-.15.07-.294-.003l-.952-.483a2.38 2.38 0 0 0-1.959-.073c-.6.24-1.133.725-1.387 1.41l-.375 1.013c-.056.153-.16.2-.213.206a10 10 0 0 1-2.363-.044c-.053-.007-.154-.058-.205-.213l-.078-.237v.017c0 .43.167.847.482 1.141l.628.585a11 11 0 0 0 1.654-.043c.556-.056 1.013-.452 1.21-.985l.375-1.013c.122-.329.386-.58.707-.709.322-.128.684-.127.993.03l.952.482c.5.254 1.1.228 1.546-.116a11.4 11.4 0 0 0 1.903-1.864c.354-.44.402-1.05.171-1.568l-.41-.922a1.44 1.44 0 0 1 .007-1.141c.118-.282.342-.508.628-.605l1.076-.367c.53-.18.936-.63 1.012-1.194.12-.9.134-1.802.048-2.688-.055-.567-.445-1.032-.968-1.232l-.996-.382a1.23 1.23 0 0 1-.696-.72 1.26 1.26 0 0 1 .029-1.01l.474-.968c.25-.51.224-1.12-.114-1.573-.53-.71-1.143-1.36-1.833-1.937-.432-.36-1.03-.41-1.54-.175l-.906.418c-.355.164-.763.15-1.122-.006a1.07 1.07 0 0 1-.594-.64l-.36-1.095c-.178-.54-.62-.953-1.174-1.03a11 11 0 0 0-2.642-.049c-.556.057-1.013.453-1.21.986l-.375 1.013c-.122.329-.386.58-.707.709a1.2 1.2 0 0 1-.993-.03l-.952-.483c-.5-.254-1.1-.228-1.546.117a11.4 11.4 0 0 0-1.735 1.66q.543.287 1.063.606.642-.721 1.393-1.301c.042-.033.15-.07.294.003l.952.483a2.38 2.38 0 0 0 1.959.073 2.44 2.44 0 0 0 1.387-1.41l.375-1.013c.056-.153.16-.2.213-.206a10 10 0 0 1 2.363.043c.053.008.154.059.205.214m-.252 15.753a5.76 5.76 0 0 0 3.959-3.392c1.245-2.968-.11-6.401-3.026-7.669s-6.29.111-7.536 3.079a6 6 0 0 0-.355 1.17q.177.048.365.04l.855-.037q.087-.353.23-.697c.988-2.352 3.662-3.445 5.974-2.44 2.31 1.005 3.384 3.726 2.397 6.078a4.57 4.57 0 0 1-3.14 2.689q.133.483.244.975.023.102.033.203" clip-rule="evenodd"/><path fill="#fff" fill-rule="evenodd" d="M19.508 14.603c-1.307.354-2.55.873-3.704 1.534l.085 2.006c.05 1.162-.435 2.212-1.17 2.949-.753.752-1.831 1.243-3.02 1.172l-1.888-.113a16.4 16.4 0 0 0-1.58 3.806l1.382 1.289c.892.832 1.3 1.971 1.297 3.06v.04c0 .996-.39 2.023-1.207 2.762l-1.535 1.389a16.4 16.4 0 0 0 1.523 3.83l1.89-.084c1.19-.052 2.26.455 3 1.219.726.748 1.195 1.804 1.128 2.966l-.115 2.004c1.146.68 2.38 1.218 3.682 1.591l1.228-1.363c.838-.93 2.007-1.351 3.11-1.351.997 0 2.026.399 2.754 1.232l1.353 1.547a15.7 15.7 0 0 0 3.704-1.534l-.086-2.005c-.05-1.163.435-2.212 1.172-2.95.751-.752 1.83-1.243 3.018-1.172l1.889.113a16.4 16.4 0 0 0 1.58-3.806l-1.383-1.289c-.892-.831-1.3-1.97-1.297-3.06v-.04c0-.995.39-2.023 1.208-2.762l1.534-1.389a16.4 16.4 0 0 0-1.523-3.83l-1.89.084c-1.19.053-2.26-.454-3-1.218-.726-.748-1.195-1.805-1.128-2.966l.116-2.004a15.7 15.7 0 0 0-3.682-1.592l-1.229 1.364c-.838.93-2.007 1.35-3.11 1.35a3.65 3.65 0 0 1-2.753-1.23zm2.859.232c.312.358.772.548 1.247.548.613 0 1.214-.234 1.624-.69l1.26-1.399c.477-.53 1.203-.774 1.89-.582a17.7 17.7 0 0 1 4.367 1.888c.598.36.919 1.034.879 1.73l-.118 2.049a1.95 1.95 0 0 0 .566 1.459c.388.4.92.637 1.477.612l1.935-.086c.71-.031 1.39.312 1.738.932a18.4 18.4 0 0 1 1.793 4.508c.17.675-.075 1.378-.591 1.845l-1.566 1.417c-.36.325-.55.795-.55 1.28v.045c-.001.6.223 1.183.661 1.592l1.414 1.318c.508.475.742 1.181.563 1.853a18.4 18.4 0 0 1-1.86 4.48c-.357.614-1.043.947-1.752.905l-1.934-.115c-.555-.033-1.091.196-1.485.59a1.95 1.95 0 0 0-.588 1.45l.088 2.049c.03.697-.302 1.367-.905 1.718a17.7 17.7 0 0 1-4.395 1.82c-.69.18-1.41-.075-1.88-.611l-1.383-1.584a1.65 1.65 0 0 0-1.248-.547c-.613 0-1.213.233-1.624.69l-1.26 1.398c-.477.53-1.203.774-1.889.582a17.7 17.7 0 0 1-4.368-1.887c-.597-.36-.918-1.035-.878-1.731l.118-2.048a1.95 1.95 0 0 0-.567-1.46c-.388-.4-.92-.636-1.476-.612l-1.935.086c-.71.032-1.39-.312-1.738-.931a18.4 18.4 0 0 1-1.793-4.508c-.17-.675.075-1.378.59-1.845l1.567-1.418c.36-.325.549-.794.549-1.28v-.044c.002-.6-.222-1.184-.66-1.592L6.835 27.39c-.509-.474-.742-1.181-.563-1.853a18.4 18.4 0 0 1 1.86-4.48c.357-.614 1.043-.947 1.752-.905l1.933.116a1.95 1.95 0 0 0 1.485-.59c.385-.385.612-.906.588-1.45l-.087-2.05c-.03-.697.301-1.367.905-1.718a17.7 17.7 0 0 1 4.395-1.819c.689-.181 1.41.074 1.879.61z" clip-rule="evenodd"/><path fill="none" stroke="#fff" stroke-width="2" d="M31.68 30.346c0 4.559-3.628 8.224-8.066 8.224s-8.065-3.665-8.065-8.224 3.627-8.225 8.065-8.225 8.065 3.666 8.065 8.225Z"/><path stroke="#fff" stroke-linecap="round" stroke-width="1.5" d="M3.206 16.618h2.758m5.09-11.65h2.21"/><path fill="#fff" d="M16.955 4.276a.75.75 0 0 0 0 1.5zm7.816.75v.75a.75.75 0 0 0 .75-.765zm-.068-3.443L25.15.98a.75.75 0 0 0-1.197.616zm4.635 3.443.442.606.824-.6-.819-.608zm-4.975 2.7a.75.75 0 0 0 .883 1.211zm-7.408-1.95h7.816v-1.5h-7.816zm8.565-.765-.067-3.443-1.5.03.068 3.442zm-1.264-2.826 4.635 3.443.895-1.204L25.15.98zm4.64 2.235-4.533 3.305.883 1.212 4.534-3.305zm13.923 34.344a.75.75 0 1 0 0 1.5zm5.15.75v.75a.75.75 0 0 0 .75-.758zm-.046-4.44.452-.6a.75.75 0 0 0-1.202.607zm5.917 4.458.45.6.799-.599-.797-.6zm-6.367 3.835a.75.75 0 0 0 .9 1.2zm-4.654-3.103h5.15v-1.5h-5.15zm5.9-.758-.046-4.44-1.5.015.045 4.44zm-1.247-3.834 5.917 4.459.903-1.198-5.917-4.459zm5.919 3.26-5.917 4.435.9 1.2 5.916-4.435zM15.798 51a.75.75 0 0 0 0 1.5zm20.229.75v.75a.75.75 0 0 0 .75-.75zm0-5.167.444-.605a.75.75 0 0 0-1.194.605zm6.789 4.986.451.6.806-.607-.813-.598zm-7.17 4.458a.75.75 0 1 0 .902 1.198zM15.798 52.5h20.229V51H15.798zm20.979-.75v-5.167h-1.5v5.167zm-1.194-4.562 6.79 4.985.887-1.209-6.79-4.986zm6.782 3.782-6.72 5.057.903 1.198 6.719-5.057z"/><path stroke="#fff" stroke-linecap="round" stroke-width="1.5" d="M1.702 39.57h3.715m2.38 12.052h2.375"/></symbol><symbol id="error" viewBox="0 0 53 46"><path fill="#fff" fill-rule="evenodd" d="M27.061 2.575a.652.652 0 0 0-1.125 0L2.942 42.511a.635.635 0 0 0 .562.948h45.989a.635.635 0 0 0 .562-.948zm1.688-.938c-.99-1.72-3.51-1.72-4.5 0L1.253 41.573c-.975 1.693.27 3.791 2.25 3.791h45.989c1.98 0 3.225-2.098 2.25-3.791z" clip-rule="evenodd"/><path fill="#fff" d="M26.582 40.2c1.521 0 2.754-1.207 2.754-2.696 0-1.488-1.233-2.695-2.754-2.695s-2.755 1.207-2.755 2.695c0 1.489 1.234 2.695 2.755 2.695"/><path fill="#fff" fill-rule="evenodd" d="M25.463 14.123c-.81 0-1.42.724-1.27 1.506l2.305 11.997 2.306-11.997c.15-.782-.46-1.506-1.27-1.506zm-3.176 1.86c-.376-1.956 1.15-3.765 3.176-3.765h2.071c2.025 0 3.551 1.81 3.175 3.765l-2.94 15.301a1.24 1.24 0 0 1-.47.775l-.002.001a1.33 1.33 0 0 1-.799.259c-.286 0-.57-.088-.798-.259l-.002-.001a1.24 1.24 0 0 1-.47-.774z" clip-rule="evenodd"/></symbol><symbol id="search" viewBox="0 0 19 19"><path fill="currentColor" fill-rule="evenodd" d="M6.913 11.425a4.712 4.712 0 1 0 0-9.425 4.712 4.712 0 0 0 0 9.425m0 2A6.713 6.713 0 1 0 6.913 0a6.713 6.713 0 0 0 0 13.425" clip-rule="evenodd"/><path fill="currentColor" fill-rule="evenodd" d="M10.662 10.546a1 1 0 0 1 1.414 0l6.43 6.431a1 1 0 0 1-1.414 1.414l-6.43-6.43a1 1 0 0 1 0-1.415" clip-rule="evenodd"/></symbol><symbol id="gear" viewBox="0 0 512 512"><path fill="currentColor" d="M34.283 384c17.646 30.626 56.779 41.148 87.405 23.502l.062-.036 9.493-5.483A191.5 191.5 0 0 0 192 437.055V448c0 35.346 28.654 64 64 64s64-28.654 64-64v-10.944a191.5 191.5 0 0 0 60.757-35.115l9.536 5.504c30.633 17.673 69.794 7.167 87.467-23.467 17.673-30.633 7.167-69.794-23.467-87.467l-9.472-5.461a194.2 194.2 0 0 0 0-70.187l9.472-5.461c30.633-17.673 41.14-56.833 23.467-87.467-17.673-30.633-56.833-41.14-87.467-23.467l-9.493 5.483A191.5 191.5 0 0 0 320 74.944V64c0-35.346-28.654-64-64-64s-64 28.654-64 64v10.944a191.5 191.5 0 0 0-60.757 35.115l-9.536-5.525C91.073 86.86 51.913 97.367 34.24 128s-7.167 69.794 23.467 87.467l9.472 5.461a194.2 194.2 0 0 0 0 70.187l-9.472 5.461C27.158 314.296 16.686 353.38 34.283 384M256 170.667c47.128 0 85.333 38.205 85.333 85.333S303.128 341.333 256 341.333 170.667 303.128 170.667 256s38.205-85.333 85.333-85.333"/></symbol></defs></svg>